# xmcd
#
# Track frame offsets:
#	150
#	15687
#	30846
#	48898
#	68815
#	84482
#	104254
#	120351
#	135273
#	149480
#	167855
#	181349
#
# Disc length: 2673 seconds
#
# Revision: 1
# Processed by: cddbd v1.5.2PL0 Copyright (c) Steve Scherf et al.
# Submitted via: audiograbber 1.83.01
#
DISCID=910a6f0c
DTITLE=Paul Overstreet - A Songwriter's Project Vol.1
DYEAR=1999
DGENRE=Country
TTITLE0=Same Old Me
TTITLE1=I Won't Take Less Than Your Love
TTITLE2=When You Say Nothing At All
TTITLE3=Forever And Ever, Amen
TTITLE4=Long Line Of Love
TTITLE5=Diggin' Up Bones
TTITLE6=Be Mine
TTITLE7=On The Other Hand
TTITLE8=I Fell In Love Again Last Night
TTITLE9=Toughest Battles
TTITLE10=What Are Friends For
TTITLE11=When Mama Ain't Happy
EXTD=
EXTT0=
EXTT1=
EXTT2=
EXTT3=
EXTT4=
EXTT5=
EXTT6=
EXTT7=
EXTT8=
EXTT9=
EXTT10=
EXTT11=
PLAYORDER=
